<svg width="117" height="36" viewBox="0 0 117 36" fill="none" xmlns="http://www.w3.org/2000/svg">
<rect x="1.5" y="1.5" width="33" height="33" stroke="#1E3B8A" stroke-width="3"/>
<path d="M7.03378 28.7466C8.57166 30.3325 11.0651 30.3325 12.6029 28.7466C14.1408 27.1607 14.1408 24.5893 12.6029 23.0034C11.0651 21.4175 8.57166 21.4175 7.03378 23.0034C5.49589 24.5893 5.49589 27.1607 7.03378 28.7466ZM22.3065 12.9966C23.8444 14.5825 26.3378 14.5825 27.8757 12.9966C29.4136 11.4107 29.4136 8.83934 27.8757 7.2534C26.3378 5.66746 23.8444 5.66746 22.3065 7.2534C20.7686 8.83934 20.7686 11.4107 22.3065 12.9966ZM9.81836 25.875L10.3405 26.4134L25.6132 10.6634L25.0911 10.125L24.569 9.58657L9.29625 25.3366L9.81836 25.875Z" fill="#1E3B8A"/>
<path d="M45.344 27V10.68H56.48V13.776H49.136V17.208H55.04V20.28H49.136V23.88H56.48V27H45.344ZM58.3948 27V14.928H62.0428V15.672C62.2828 15.512 62.5788 15.36 62.9308 15.216C63.2988 15.056 63.6828 14.928 64.0828 14.832C64.4988 14.72 64.8908 14.664 65.2588 14.664C65.9788 14.664 66.5628 14.768 67.0108 14.976C67.4748 15.168 67.8508 15.448 68.1388 15.816C68.4268 15.64 68.7788 15.464 69.1948 15.288C69.6268 15.112 70.0908 14.968 70.5868 14.856C71.0828 14.728 71.5708 14.664 72.0508 14.664C72.9468 14.664 73.6828 14.784 74.2588 15.024C74.8508 15.248 75.3068 15.616 75.6268 16.128C75.9628 16.624 76.1948 17.256 76.3228 18.024C76.4508 18.792 76.5148 19.704 76.5148 20.76V27H72.8668V21.12C72.8668 20.368 72.8268 19.752 72.7468 19.272C72.6668 18.792 72.5068 18.44 72.2668 18.216C72.0268 17.976 71.6828 17.856 71.2348 17.856C70.9788 17.856 70.7148 17.88 70.4427 17.928C70.1708 17.976 69.9148 18.04 69.6748 18.12C69.4508 18.2 69.2588 18.28 69.0988 18.36C69.1948 18.648 69.2588 19.048 69.2908 19.56C69.3228 20.056 69.3387 20.568 69.3387 21.096V27H65.6668V21.168C65.6668 20.384 65.6268 19.752 65.5468 19.272C65.4668 18.792 65.3068 18.44 65.0668 18.216C64.8428 17.976 64.5068 17.856 64.0588 17.856C63.8028 17.856 63.5468 17.88 63.2908 17.928C63.0348 17.976 62.8028 18.04 62.5948 18.12C62.3868 18.2 62.2108 18.272 62.0668 18.336V27H58.3948ZM82.9139 27.288C82.3059 27.288 81.7539 27.208 81.2579 27.048C80.7619 26.904 80.3299 26.68 79.9619 26.376C79.6099 26.056 79.3139 25.656 79.0739 25.176C78.8339 24.68 78.6499 24.088 78.5219 23.4C78.4099 22.712 78.3539 21.92 78.3539 21.024C78.3539 19.664 78.5219 18.512 78.8579 17.568C79.2099 16.624 79.7619 15.904 80.5139 15.408C81.2819 14.912 82.2899 14.664 83.5379 14.664C83.7619 14.664 84.0179 14.68 84.3059 14.712C84.6099 14.728 84.9059 14.752 85.1939 14.784C85.4979 14.816 85.7459 14.848 85.9379 14.88V10.128H89.6099V27H85.9859L85.9619 26.352C85.7379 26.48 85.4499 26.616 85.0979 26.76C84.7619 26.904 84.4019 27.024 84.0179 27.12C83.6499 27.232 83.2819 27.288 82.9139 27.288ZM83.9219 24.24C84.1619 24.24 84.4099 24.216 84.6659 24.168C84.9219 24.104 85.1619 24.04 85.3859 23.976C85.6099 23.896 85.7939 23.832 85.9379 23.784V17.856C85.8099 17.824 85.6419 17.8 85.4339 17.784C85.2259 17.752 85.0099 17.728 84.7859 17.712C84.5619 17.696 84.3619 17.688 84.1859 17.688C83.6259 17.688 83.1939 17.824 82.8899 18.096C82.5859 18.368 82.3699 18.752 82.2419 19.248C82.1299 19.728 82.0739 20.32 82.0739 21.024C82.0739 21.632 82.1139 22.144 82.1939 22.56C82.2739 22.96 82.3939 23.288 82.5539 23.544C82.7139 23.784 82.9059 23.96 83.1299 24.072C83.3699 24.184 83.6339 24.24 83.9219 24.24ZM95.3167 27.288C94.0047 27.288 93.0207 26.968 92.3647 26.328C91.7247 25.688 91.4047 24.712 91.4047 23.4C91.4047 22.472 91.5727 21.76 91.9087 21.264C92.2607 20.752 92.7647 20.384 93.4207 20.16C94.0767 19.936 94.8687 19.8 95.7967 19.752L98.4847 19.536V18.912C98.4847 18.432 98.3487 18.096 98.0767 17.904C97.8207 17.696 97.4367 17.592 96.9247 17.592C96.4607 17.592 95.9327 17.608 95.3407 17.64C94.7487 17.672 94.1647 17.712 93.5887 17.76C93.0127 17.808 92.5167 17.856 92.1007 17.904L91.9807 15.36C92.4127 15.248 92.9247 15.144 93.5167 15.048C94.1247 14.936 94.7567 14.848 95.4127 14.784C96.0687 14.704 96.6847 14.664 97.2607 14.664C98.3007 14.664 99.1807 14.792 99.9007 15.048C100.637 15.288 101.197 15.704 101.581 16.296C101.965 16.872 102.157 17.68 102.157 18.72V24C102.205 24.192 102.317 24.344 102.493 24.456C102.685 24.552 102.893 24.624 103.117 24.672L103.045 27.12C102.805 27.136 102.549 27.152 102.277 27.168C102.005 27.2 101.749 27.208 101.509 27.192C101.269 27.192 101.069 27.184 100.909 27.168C100.493 27.12 100.133 27.024 99.8287 26.88C99.5407 26.72 99.3247 26.56 99.1807 26.4C98.9247 26.512 98.5887 26.64 98.1727 26.784C97.7567 26.928 97.3007 27.048 96.8047 27.144C96.3247 27.24 95.8287 27.288 95.3167 27.288ZM96.2287 24.624C96.5007 24.624 96.7727 24.592 97.0447 24.528C97.3327 24.464 97.6047 24.392 97.8607 24.312C98.1167 24.232 98.3247 24.16 98.4847 24.096V21.72L96.3727 21.912C95.9247 21.96 95.5967 22.104 95.3887 22.344C95.1807 22.568 95.0767 22.888 95.0767 23.304C95.0767 23.704 95.1727 24.024 95.3647 24.264C95.5567 24.504 95.8447 24.624 96.2287 24.624ZM108.859 27.288C108.251 27.288 107.699 27.208 107.203 27.048C106.707 26.904 106.275 26.68 105.907 26.376C105.555 26.056 105.259 25.656 105.019 25.176C104.779 24.68 104.595 24.088 104.467 23.4C104.355 22.712 104.299 21.92 104.299 21.024C104.299 19.664 104.467 18.512 104.803 17.568C105.155 16.624 105.707 15.904 106.459 15.408C107.227 14.912 108.235 14.664 109.483 14.664C109.707 14.664 109.963 14.68 110.251 14.712C110.555 14.728 110.851 14.752 111.139 14.784C111.443 14.816 111.691 14.848 111.883 14.88V10.128H115.555V27H111.931L111.907 26.352C111.683 26.48 111.395 26.616 111.043 26.76C110.707 26.904 110.347 27.024 109.963 27.12C109.595 27.232 109.227 27.288 108.859 27.288ZM109.867 24.24C110.107 24.24 110.355 24.216 110.611 24.168C110.867 24.104 111.107 24.04 111.331 23.976C111.555 23.896 111.739 23.832 111.883 23.784V17.856C111.755 17.824 111.587 17.8 111.379 17.784C111.171 17.752 110.955 17.728 110.731 17.712C110.507 17.696 110.307 17.688 110.131 17.688C109.571 17.688 109.139 17.824 108.835 18.096C108.531 18.368 108.315 18.752 108.187 19.248C108.075 19.728 108.019 20.32 108.019 21.024C108.019 21.632 108.059 22.144 108.139 22.56C108.219 22.96 108.339 23.288 108.499 23.544C108.659 23.784 108.851 23.96 109.075 24.072C109.315 24.184 109.579 24.24 109.867 24.24Z" fill="#1E3B8A"/>
</svg>
